HIERARCHY
ROOT Root
{
	OFFSET 0.00000 0.00000 0.00000
	CHANNELS 6 Xposition Yposition Zposition Zrotation Xrotation Yrotation
	JOINT Hips
	{
		OFFSET 0 0 0	
		CHANNELS 3 Zrotation Xrotation Yrotation
		JOINT Spine
		{
			OFFSET 0 4 0	
			CHANNELS 3 Zrotation Xrotation Yrotation
			JOINT Spine1
			{
				OFFSET 0 19.4 0	
				CHANNELS 3 Zrotation Xrotation Yrotation
				JOINT Spine2
				{
					OFFSET 0 16.6 0	
					CHANNELS 3 Zrotation Xrotation Yrotation
					JOINT LeftCollar
					{
						OFFSET 0 10 0	
						CHANNELS 3 Zrotation Xrotation Yrotation
						JOINT LeftArm
						{
							OFFSET 15.6 -2 3	
							CHANNELS 3 Zrotation Xrotation Yrotation
							JOINT LeftForeArm
							{
								OFFSET 3.5 -27 -1	
								CHANNELS 3 Zrotation Xrotation Yrotation
								JOINT LeftHand
								{
									OFFSET 1 -27 1	
									CHANNELS 3 Zrotation Xrotation Yrotation
									End Site
									{
										OFFSET 0 -15 0
									}
								}
							}
						}
					}
					JOINT RightCollar
					{
						OFFSET 0 10 0	
						CHANNELS 3 Zrotation Xrotation Yrotation
						JOINT RightArm
						{
							OFFSET -15.6 -2 3	
							CHANNELS 3 Zrotation Xrotation Yrotation
							JOINT RightForeArm
							{
								OFFSET -3.5 -27 -1	
								CHANNELS 3 Zrotation Xrotation Yrotation
								JOINT RightHand
								{
									OFFSET -1 -27 1	
									CHANNELS 3 Zrotation Xrotation Yrotation
									End Site
									{
										OFFSET 0 -15 0
									}
								}
							}
						}
					}
					JOINT Neck
					{
						OFFSET 0 10 0	
						CHANNELS 3 Zrotation Xrotation Yrotation
						JOINT Head
						{
							OFFSET 0 12.7 3	
							CHANNELS 3 Zrotation Xrotation Yrotation
							End Site
							{
								OFFSET 0 12.7 3
							}
						}
					}
				}
			}
		}
	}
	JOINT LeftHip
	{
		OFFSET 0 0 0	
		CHANNELS 3 Zrotation Xrotation Yrotation
		JOINT LeftUpLeg
		{
			OFFSET 8.8 -6 0	
			CHANNELS 3 Zrotation Xrotation Yrotation
			JOINT LeftLeg
			{
				OFFSET 0 -39 2	
				CHANNELS 3 Zrotation Xrotation Yrotation
				JOINT LeftFoot
				{
					OFFSET 0 -43 -2	
					CHANNELS 3 Zrotation Xrotation Yrotation
					JOINT LeftFootFront
					{
						OFFSET 0 -7 8.5	
						CHANNELS 3 Zrotation Xrotation Yrotation
						End Site
						{
							OFFSET 0 -0.5 9
						}
					}
				}
				JOINT LeftHeel
				{
					OFFSET 0 -43 -2	
					CHANNELS 3 Zrotation Xrotation Yrotation
					End Site
					{
						OFFSET 0 -7.5 -5
					}
				}
			}
		}
	}
	JOINT RightHip
	{
		OFFSET 0 0 0	
		CHANNELS 3 Zrotation Xrotation Yrotation
		JOINT RightUpLeg
		{
			OFFSET -8.8 -6 0	
			CHANNELS 3 Zrotation Xrotation Yrotation
			JOINT RightLeg
			{
				OFFSET 0 -39 2	
				CHANNELS 3 Zrotation Xrotation Yrotation
				JOINT RightFoot
				{
					OFFSET 0 -43 -2	
					CHANNELS 3 Zrotation Xrotation Yrotation
					JOINT RightFootFront
					{
						OFFSET 0 -7 8.5	
						CHANNELS 3 Zrotation Xrotation Yrotation
						End Site
						{
							OFFSET 0 -0.5 9
						}
					}
				}
				JOINT RightHeel
				{
					OFFSET 0 -43 -2	
					CHANNELS 3 Zrotation Xrotation Yrotation
					End Site
					{
						OFFSET 0 -7.5 -5
					}
				}
			}
		}
	}
}
MOTION
Frames: 21
Frame Time: 0.05
-17.709 87.253 -29.475 -0 0 -0 23.697 74.806 -46.144 7.3122 7.0593 0.49251 7.3122 7.0593 0.4925 6.1409 5.9265 0.47429 -0 0 -0 -7.1653 -59.452 -23.186 -8.2061 -18.648 -1.3981 43.488 -0.29634 2.6024 -0 0 -0 -8.4964 -15.854 -7.2411 61.797 -43.123 51.941 -32.949 -9.3158 -25.768 -12.059 -19.332 6.1866 -5.3976 -13.627 7.9334 23.697 74.806 -46.144 114.72 -46.118 80.916 -14.894 22.659 25.785 -18.441 -6.2614 16.421 0.0073495 -5.2709e-05 -0.0031554 -0 0 -0 23.697 74.806 -46.144 41.258 -70.587 7.1715 -0.18945 -7.0724 1.3122 19.449 -10.31 20.021 0.016725 0.1743 -0.0082055 -0 0 -0 
-17.849 87.247 -29.336 -0 0 -0 23.315 74.836 -45.911 7.2186 6.9493 0.26584 7.2186 6.9493 0.26584 6.0606 5.836 0.28231 -0 0 -0 -3.3398 -60.596 -19.464 -10.919 -20.453 0.17737 44.337 -2.1613 -0.11019 -0 0 -0 -9.3113 -17.141 -15.255 66.939 -37.123 57.89 -32.878 -8.6679 -25.937 -11.566 -19.588 6.4669 -5.0616 -13.921 7.9539 23.315 74.836 -45.911 114.66 -45.837 80.51 -15.304 22.958 25.65 -18.264 -6.3063 16.69 0.11098 0.085549 -0.0094108 -0 0 -0 23.315 74.836 -45.911 40.754 -70.157 6.6517 0.36299 -6.9681 1.1004 20.316 -10.098 20.476 0.64857 0.072498 -0.08427 -0 0 -0 
-18 87.257 -29.226 -0 0 -0 23.522 74.758 -46.256 7.2494 6.9242 0.26034 7.2494 6.9242 0.26034 6.0864 5.8149 0.27773 -0 0 -0 -3.6509 -62.285 -16.979 -12.211 -22.571 -2.0189 44.425 -2.2247 -1.8335 -0 0 -0 -9.3698 -18.929 -15.565 69.222 -36.016 60.275 -34.916 -6.7572 -26.852 -11.6 -19.456 6.5347 -5.0755 -13.809 8.0156 23.522 74.758 -46.256 114.65 -45.301 79.911 -15.873 23.018 26.045 -18.312 -6.0992 16.851 0.117 0.073023 -0.0026806 -0 0 -0 23.522 74.758 -46.256 42.15 -69.693 8.0006 -0.023212 -7.3258 1.2507 20.98 -9.8185 20.472 0.45003 -0.031907 -0.050178 -0 0 -0 
-18.126 87.282 -29.135 -0 0 -0 23.548 74.6 -46.649 7.384 6.8688 -0.32289 7.384 6.8688 -0.32289 6.1947 5.7735 -0.21123 -0 0 -0 -2.9786 -62.558 -14.3 -10.888 -26.237 -2.3323 45.461 2.2856 -9.1124 -0 0 -0 -10.111 -20.076 -11.679 71.198 -36.009 60.066 -35.901 -3.7152 -29.147 -11.716 -18.866 7.8538 -5.258 -13.168 8.8445 23.548 74.6 -46.649 114.41 -44.629 79.331 -16.26 22.934 26.259 -18.447 -5.786 16.942 0.057812 -0.011398 -0.00018755 -0 0 -0 23.548 74.6 -46.649 43.889 -69.403 9.7032 -0.53298 -7.4682 1.3385 21.197 -9.6642 20.44 0.0057407 0.029602 0.0043261 -0 0 -0 
-18.204 87.313 -29.029 -0 0 -0 22.61 73.774 -46.489 7.8217 6.82 -0.75787 7.8217 6.82 -0.75787 6.5588 5.7367 -0.57329 -0 0 -0 -4.1783 -59.62 -16.117 -6.2445 -30.304 2.4727 44.27 8.1996 -12.266 -0 0 -0 -10.006 -22.263 -6.1584 66.116 -37.184 54.5 -34.649 -0.78966 -31.151 -12.635 -17.786 8.7212 -5.9212 -12.062 9.433 22.61 73.774 -46.489 112.91 -44.073 77.973 -16.496 22.91 26.457 -18.487 -5.5823 16.632 -0.049691 -0.027554 0.0040779 -0 0 -0 22.61 73.774 -46.489 44.54 -68.376 10.4 -0.49805 -7.5313 1.069 20.73 -9.6917 21.033 -0.0092249 0.21335 -0.015678 -0 0 -0 
-18.232 87.336 -28.886 -0 0 -0 21.637 72.697 -45.853 7.9016 7.0443 -0.57873 7.9016 7.0443 -0.57873 6.6267 5.9236 -0.42013 -0 0 -0 -6.1049 -54.768 -21.83 -0.78954 -30.612 6.6679 44.5 9.5153 -14.254 -0 0 -0 -8.5079 -23.335 -1.6714 59.403 -38.538 46.028 -31.834 0.35207 -32.618 -13.167 -18.075 8.0675 -6.3107 -12.21 9.0294 21.637 72.697 -45.853 111.02 -44.285 76.423 -16.539 22.925 26.451 -18.432 -5.6433 16.5 -0.069587 0.013549 0.005242 -0 0 -0 21.637 72.697 -45.853 43.583 -67.357 9.6333 -0.58978 -7.7134 1.1202 20.402 -10.133 21.286 0.068083 0.16311 -0.025376 -0 0 -0 
-18.222 87.335 -28.71 -0 0 -0 21.381 72.334 -45.127 7.7438 7.0143 -0.89305 7.7438 7.0143 -0.89306 6.4917 5.9011 -0.68556 -0 0 -0 -3.6635 -50.602 -22.477 0.96364 -25.641 4.4391 40.283 13.124 -4.9134 -0 0 -0 -7.3941 -20.288 1.9368 62.693 -38.352 45.742 -34.398 2.0632 -31.681 -12.759 -18.851 8.3144 -6.1235 -12.943 8.9668 21.381 72.334 -45.127 110.38 -45.095 75.866 -16.421 22.959 26.523 -18.476 -5.7495 16.5 0.032963 0.067811 0.00059341 -0 0 -0 21.381 72.334 -45.127 42.04 -67.265 8.0661 -1.101 -8.0076 1.3413 20.81 -10.363 21.112 -0.2548 -0.49662 0.08902 -0 0 -0 
-18.187 87.304 -28.524 -0 0 -0 23.315 72.714 -46.739 7.445 6.9487 -0.58692 7.445 6.9487 -0.58692 6.2436 5.8429 -0.43165 -0 0 -0 -3.1536 -48.819 -19.97 -1.8498 -22.094 -1.6359 40.238 10.017 -0.065973 -0 0 -0 -10.222 -16.733 -5.6329 63.036 -33.657 46.277 -30.44 -1.4318 -32.36 -12.061 -19.011 7.6477 -5.6112 -13.205 8.4683 23.315 72.714 -46.739 110.84 -45.165 76.442 -16.445 22.925 26.762 -18.516 -5.819 16.566 0.03944 0.10178 -0.015682 -0 0 -0 23.315 72.714 -46.739 40.648 -67.928 6.8596 -0.91765 -7.9925 1.4758 21.566 -10.608 21.129 -0.35379 -0.21814 0.064427 -0 0 -0 
-18.141 87.248 -28.355 -0 0 -0 26.281 73.255 -49.594 7.2186 7.3582 0.16131 7.2186 7.3583 0.16131 6.0592 6.1805 0.19807 -0 0 -0 -3.3136 -49.506 -20.371 -6.8813 -22.572 -2.4332 43.143 6.8925 0.58597 -0 0 -0 -12.429 -13.839 -13.898 67.959 -30.423 52.296 -29.074 -2.6381 -32.227 -11.978 -20.009 6.2458 -5.464 -13.998 7.7639 26.281 73.255 -49.594 111.61 -44.963 77.933 -16.407 23.105 26.704 -18.378 -5.9393 16.452 -0.015107 0.062494 0.0081255 -0 0 -0 26.281 73.255 -49.594 39.501 -68.717 5.9552 -0.35967 -7.4655 1.5862 22.504 -10.821 21.421 -0.13137 0.18187 0.0060128 -0 0 -0 
-18.1 87.183 -28.228 -0 0 -0 29.215 73.782 -52.032 7.1866 6.8424 0.37452 7.1866 6.8424 0.37452 6.0347 5.7453 0.37237 -0 0 -0 -2.8546 -48.715 -18.978 -11.251 -23.588 -4.4219 46.049 4.0955 0.77979 -0 0 -0 -14.317 -10.731 -21.272 72.505 -25.91 56.74 -28.859 -3.6317 -30.899 -11.618 -19.619 6.1014 -5.1109 -14.06 7.6665 29.215 73.782 -52.032 112.53 -45.105 79.798 -16.443 23.407 26.657 -18.176 -6.2893 16.122 0.0083608 0.051046 0.002889 -0 0 -0 29.215 73.782 -52.032 38.988 -69.466 5.3294 0.10994 -7.5842 1.4899 23.117 -10.424 21.924 0.27447 0.21043 -0.066116 -0 0 -0 
-18.08 87.119 -28.167 -0 0 -0 31.078 74.281 -53.521 7.121 6.8276 0.51012 7.121 6.8276 0.51012 5.9808 5.7318 0.48553 -0 0 -0 -1.2169 -50.619 -15.372 -15.045 -24.606 -6.9959 47.6 1.2733 0.026775 -0 0 -0 -16.037 -8.2425 -26.718 78.21 -23.007 61.47 -28.688 -4.5461 -29.917 -11.221 -20.114 6.2062 -4.7266 -14.579 7.8466 31.078 74.281 -53.521 113.49 -45.157 80.834 -16.581 23.517 27.023 -18.106 -6.4661 15.899 0.00062578 -0.074608 -0.014159 -0 0 -0 31.078 74.281 -53.521 39.719 -70.116 5.9191 0.072445 -7.8708 1.3224 23.668 -10.04 22.118 0.25483 0.064371 -0.055658 -0 0 -0 
-18.09 87.066 -28.192 -0 0 -0 32.595 74.807 -55.17 7.2262 6.5332 0.47876 7.2262 6.5332 0.47876 6.0691 5.4846 0.45755 -0 0 -0 1.7364 -53.212 -10.332 -18.166 -25.919 -7.5081 48.226 -1.6278 -1.5966 -0 0 -0 -17.136 -7.9485 -27.969 81.513 -21.121 63.741 -30.431 -6.0526 -29.327 -11.135 -19.853 7.0122 -4.5839 -14.553 8.5667 32.595 74.807 -55.17 114.22 -44.655 81.035 -16.819 23.431 27.275 -18.131 -6.6472 16.16 -0.01359 -0.099453 -0.016942 -0 0 -0 32.595 74.807 -55.17 41.542 -70.607 7.4742 0.23459 -8.0577 1.0828 23.984 -9.7402 22.446 -0.092616 0.0099551 0.022254 -0 0 -0 
-18.124 87.033 -28.31 -0 0 -0 34.921 75.312 -57.738 7.2594 6.7409 0.80015 7.2594 6.7409 0.80015 6.0993 5.6564 0.72938 -0 0 -0 5.4423 -58.915 -6.3424 -19.577 -27.429 -6.1817 47.985 -2.4373 -4.1194 -0 0 -0 -17.481 -11.429 -25.545 82.986 -23.604 65.098 -32.898 -6.7007 -29.407 -11.283 -20.232 7.2234 -4.5809 -14.817 9.1029 34.921 75.312 -57.738 115.02 -43.968 81.795 -16.81 23.456 27.133 -18.21 -6.7428 16.416 -0.027721 0.039499 0.012933 -0 0 -0 34.921 75.312 -57.738 44.806 -70.918 10.265 0.22967 -8.3442 1.0668 23.917 -9.5547 22.862 0.063878 -0.05093 0.0059982 -0 0 -0 
-18.169 87.027 -28.512 -0 0 -0 36.523 75.553 -59.146 7.2378 6.8975 0.74056 7.2378 6.8975 0.74056 6.0806 5.7885 0.68051 -0 0 -0 11.308 -65.085 -1.2959 -18.567 -28.583 -2.9681 47.864 -1.3842 -7.2116 -0 0 -0 -16.906 -16.355 -20.742 84.096 -26.838 65.446 -36.234 -6.2829 -28.813 -11.155 -20.249 8.004 -4.4859 -14.692 9.8467 36.523 75.553 -59.146 115.7 -43.845 82.847 -16.642 23.538 26.787 -18.398 -6.5701 16.576 0.018858 0.016187 0.0021818 -0 0 -0 36.523 75.553 -59.146 46.976 -71.301 12.258 -0.064889 -8.6619 1.1183 23.686 -9.4422 22.863 0.25359 -0.10889 -0.035726 -0 0 -0 
-18.209 87.054 -28.764 -0 0 -0 36.731 75.563 -59.224 7.3687 7.0704 0.99004 7.3687 7.0704 0.99004 6.1924 5.9315 0.89248 -0 0 -0 12.003 -70.583 -0.26175 -14.419 -28.582 -0.21241 46.492 0.77701 -10.089 -0 0 -0 -14.998 -23.5 -15.043 80.918 -30.82 62.894 -38.92 -4.6952 -28.377 -11.683 -20.125 7.8762 -4.8075 -14.484 10.013 36.731 75.563 -59.224 115.99 -43.765 83.312 -16.515 23.452 26.648 -18.595 -6.2542 16.584 0.030014 0.037449 0.0063596 -0 0 -0 36.731 75.563 -59.224 48.094 -71.634 13.618 -0.18926 -8.5208 0.87177 23.161 -9.5437 22.81 0.087327 -0.047861 -0.016444 -0 0 -0 
-18.228 87.11 -29.014 -0 0 -0 35.309 75.281 -57.823 7.7401 7.1676 0.88248 7.7401 7.1676 0.88248 6.5032 6.0138 0.80618 -0 0 -0 7.8181 -72.767 -2.825 -7.7884 -27.261 2.1735 45.217 4.4128 -13.561 -0 0 -0 -12.028 -31.858 -5.8024 72.238 -36.083 54.443 -39.228 -2.238 -28.248 -12.105 -19.7 8.2448 -4.9484 -13.977 10.35 35.309 75.281 -57.823 115.75 -43.711 82.966 -16.514 23.245 26.628 -18.831 -5.9182 16.582 0.043339 0.012514 0.0054413 -0 0 -0 35.309 75.281 -57.823 48.38 -71.616 14.117 -0.39937 -8.3112 0.65912 22.387 -9.6462 22.722 0.024669 -0.01992 -0.0089669 -0 0 -0 
-18.217 87.185 -29.202 -0 0 -0 32.573 74.691 -55.212 8.2049 7.711 0.42292 8.2049 7.711 0.42292 6.8887 6.4744 0.42966 -0 0 -0 4.6309 -71.115 -6.9609 0.28515 -26.992 7.5651 41.432 4.8735 -13.748 -0 0 -0 -6.4402 -39.237 7.4348 60.043 -40.991 43.366 -38.565 0.96578 -28.892 -12.786 -20.232 8.8807 -5.3122 -14.003 10.784 32.573 74.691 -55.212 114.91 -43.843 82.187 -16.379 23.056 26.542 -19.141 -5.5591 16.338 0.04208 -0.047465 -0.0070064 -0 0 -0 32.573 74.691 -55.212 47.821 -71.133 13.645 -0.69919 -8.0028 0.48914 21.579 -9.956 22.786 0.021211 0.054798 -0.014462 -0 0 -0 
-18.176 87.264 -29.285 -0 0 -0 29.165 74.055 -51.989 8.5165 7.6504 0.20119 8.5165 7.6504 0.20118 7.1482 6.4256 0.24579 -0 0 -0 1.7239 -65.697 -11.889 6.1131 -25.107 11.394 38.789 6.8183 -12.252 -0 0 -0 -1.26 -41.367 18.536 50.919 -43.42 32.154 -39.149 3.4016 -27.62 -13.03 -20.092 9.2744 -5.3607 -13.879 11.009 29.165 74.055 -51.989 113.68 -44.336 81.098 -16.112 22.86 26.479 -19.2 -5.2897 15.883 -0.12343 -0.067863 -0.0084018 -0 0 -0 29.165 74.055 -51.989 46.758 -70.279 12.291 -0.96112 -8.0554 0.11495 20.992 -10.044 23.223 -0.10242 0.10675 0.016148 -0 0 -0 
-18.116 87.328 -29.258 -0 0 -0 27.112 73.775 -49.516 8.5134 7.185 0.22612 8.5134 7.185 0.22612 7.1466 6.0343 0.26197 -0 0 -0 -0.94875 -60.493 -16.619 7.5185 -22.231 9.2825 36.632 8.0454 -7.8649 -0 0 -0 -1.27 -35.926 16.837 51.942 -42.373 33.779 -39.302 3.234 -27.576 -13.007 -19.06 9.1524 -5.3857 -13.232 10.806 27.112 73.775 -49.516 113.2 -45.214 81.033 -15.702 22.882 26.13 -19.297 -5.167 15.561 -0.10304 0.0077358 0.005964 -0 0 -0 27.112 73.775 -49.516 45.169 -70.118 10.352 -1.2536 -8.0965 0.056951 20.759 -10.037 23.31 -0.31293 -0.28673 0.079723 -0 0 -0 
-18.052 87.36 -29.146 -0 0 -0 25.764 73.715 -47.437 8.3206 7.1558 0.18198 8.3206 7.1557 0.18199 6.9845 6.0102 0.223 -0 0 -0 0.54095 -57.54 -18.035 3.6763 -21.571 7.7232 38.007 8.9126 -3.3259 -0 0 -0 -3.7171 -30.432 9.0561 56.017 -39.085 39.525 -38.183 0.86697 -27.052 -12.405 -19.034 8.925 -4.9791 -13.206 10.471 25.764 73.715 -47.437 113.35 -46.126 81.538 -15.426 23.018 25.785 -19.373 -5.0345 15.341 0.044414 0.0267 0.0091242 -0 0 -0 25.764 73.715 -47.437 42.729 -70.47 7.9001 -1.5902 -7.5269 0.66682 20.735 -10.589 22.548 -0.054711 -0.37802 0.023273 -0 0 -0 
-18.005 87.356 -29.007 -0 0 -0 24.97 74.067 -46.363 8.2255 7.3778 0.49409 8.2255 7.3778 0.49409 6.907 6.1937 0.48634 -0 0 -0 0.025636 -56.927 -16.997 0.3618 -19.4 2.8096 38.887 7.7026 0.79783 -0 0 -0 -7.3917 -28.173 1.4416 58.877 -37.705 45.228 -35.209 0.494 -27.713 -11.916 -20.203 7.9487 -4.4471 -14.234 9.7538 24.97 74.067 -46.363 113.83 -46.435 82.138 -15.413 23.079 25.669 -19.148 -4.9541 15.07 -0.023468 0.0059373 0.0056014 -0 0 -0 24.97 74.067 -46.363 40.201 -70.602 5.9577 -1.4591 -6.7423 1.133 20.672 -11.29 21.46 0.21613 -0.13441 -0.039967 -0 0 -0 
